<?xml version="1.0" standalone="no"?>
<!DOCTYPE svg PUBLIC "-//W3C//DTD SVG 20010904//EN"
 "http://www.w3.org/TR/2001/REC-SVG-20010904/DTD/svg10.dtd">
<svg version="1.0" xmlns="http://www.w3.org/2000/svg"
 width="" height="" viewBox="0 0 920.000000 295.000000"
 preserveAspectRatio="xMidYMid meet">

<g transform="translate(0.000000,295.000000) scale(0.100000,-0.100000)"
fill="#000000" stroke="none">
<path d="M971 2529 c-398 -15 -614 -40 -692 -79 -62 -32 -135 -105 -164 -164
-58 -120 -80 -331 -80 -776 0 -557 35 -752 157 -866 96 -90 191 -112 573 -134
597 -34 1502 -16 1802 35 95 16 148 41 210 98 84 77 110 147 140 367 22 161
25 796 5 965 -29 243 -62 335 -146 413 -60 55 -112 80 -204 97 -253 46 -1003
67 -1601 44z m417 -687 c103 -59 271 -157 375 -217 l187 -109 -27 -16 c-94
-57 -724 -420 -728 -420 -3 0 -5 196 -5 435 0 239 2 435 5 435 3 0 90 -49 193
-108z"/>
<path d="M7480 1550 l0 -911 117 3 117 3 14 55 c7 30 16 57 18 59 2 3 21 -15
41 -39 52 -60 120 -90 207 -90 146 0 217 72 263 267 15 67 18 123 18 398 0
223 -4 342 -13 392 -15 77 -58 178 -88 205 -64 57 -189 67 -279 24 -48 -24
-125 -96 -125 -118 0 -4 -4 -8 -10 -8 -6 0 -10 118 -10 335 l0 335 -135 0
-135 0 0 -910z m464 165 c13 -14 27 -38 30 -53 13 -52 24 -428 16 -572 -10
-209 -36 -260 -129 -260 -31 0 -49 7 -76 31 l-35 31 0 364 c0 343 1 367 20
403 41 81 126 108 174 56z"/>
<path d="M3240 2381 c0 -5 15 -65 34 -132 115 -416 203 -732 239 -854 l40
-140 6 -305 6 -305 138 -3 137 -3 0 283 c0 164 4 298 10 318 30 102 320 1139
320 1144 0 3 -63 6 -140 6 -77 0 -140 -2 -140 -4 0 -3 -24 -114 -54 -248 -30
-134 -71 -327 -92 -430 -20 -103 -40 -185 -44 -183 -4 3 -10 26 -14 52 -3 27
-42 218 -86 427 -44 208 -80 380 -80 382 0 2 -63 4 -140 4 -77 0 -140 -4 -140
-9z"/>
<path d="M5760 2275 l0 -115 143 0 142 0 0 -758 0 -757 138 -3 137 -3 0 761 0
760 145 0 145 0 0 115 0 115 -425 0 -425 0 0 -115z"/>
<path d="M4377 1930 c-123 -31 -205 -120 -243 -263 -24 -92 -37 -293 -30 -484
10 -328 55 -452 188 -519 70 -35 188 -50 280 -35 182 30 259 111 304 316 25
115 25 563 0 680 -23 106 -55 174 -106 225 -65 65 -116 83 -245 86 -60 2 -127
-1 -148 -6z m184 -206 c40 -36 44 -75 44 -434 0 -190 -3 -361 -8 -381 -11 -54
-48 -89 -92 -89 -51 0 -70 13 -91 62 -16 38 -18 82 -22 344 -5 383 7 476 67
510 30 16 77 11 102 -12z"/>
<path d="M8663 1926 c-90 -29 -148 -81 -188 -168 -51 -111 -59 -178 -59 -478
0 -220 3 -290 17 -348 31 -140 84 -225 166 -266 154 -78 369 -52 476 58 61 61
85 127 85 227 l0 69 -59 0 c-32 0 -85 3 -118 6 l-60 7 -11 -71 c-14 -97 -29
-124 -78 -141 -34 -12 -44 -12 -69 0 -54 26 -66 63 -72 224 l-6 145 241 0 242
0 0 183 c-1 347 -39 464 -175 532 -55 27 -70 30 -175 32 -76 2 -129 -2 -157
-11z m182 -182 c38 -15 49 -63 53 -232 l4 -163 -103 3 -104 3 1 145 c1 156 12
210 47 235 22 15 73 20 102 9z"/>
<path d="M5052 1373 c3 -491 5 -553 21 -592 37 -96 96 -146 183 -156 114 -15
211 29 284 128 35 47 35 47 42 21 4 -14 10 -50 14 -80 l6 -55 111 3 111 3 1
635 0 635 -142 3 -143 3 0 -514 0 -514 -26 -27 c-15 -14 -44 -31 -65 -37 -32
-10 -42 -9 -64 5 -14 9 -30 28 -35 42 -6 15 -10 235 -10 535 l0 509 -146 0
-145 0 3 -547z"/>
<path d="M6530 1407 c0 -604 4 -640 79 -720 45 -49 78 -61 166 -61 63 0 90 5
127 23 45 22 105 78 139 131 16 24 16 22 29 -58 l12 -82 109 0 109 0 0 640 0
640 -140 0 -140 0 0 -513 0 -513 -27 -26 c-60 -58 -131 -60 -161 -5 -15 29
-17 81 -20 545 l-3 512 -140 0 -139 0 0 -513z"/>
</g>
</svg>
